<?xml version="1.0" encoding="UTF-8"?>
<svg width="317px" height="32px" viewBox="0 0 317 32" version="1.1" xmlns="http://www.w3.org/2000/svg" xmlns:xlink="http://www.w3.org/1999/xlink">
    <!-- Generator: Sketch 54.1 (76490) - https://sketchapp.com -->
    <title>Logo</title>
    <desc>Created with Sketch.</desc>
    <g id="Logo" stroke="none" stroke-width="1" fill="none" fill-rule="evenodd">
        <g>
            <g id="favicon">
                <ellipse id="small" fill="#719BA8" cx="3.38916256" cy="16" rx="3.38916256" ry="3.38324873"></ellipse>
                <ellipse id="small" fill="#596593" cx="16.1576355" cy="28.6167512" rx="3.38916256" ry="3.38324873"></ellipse>
                <ellipse id="small" fill="#596593" cx="28.6108374" cy="16" rx="3.38916256" ry="3.38324873"></ellipse>
                <ellipse id="small" fill="#719BA8" cx="16.1576355" cy="3.38324873" rx="3.38916256" ry="3.38324873"></ellipse>
                <ellipse id="medium" fill="#ED9328" cx="7.96059113" cy="8.44670051" rx="4.96551724" ry="4.95685279"></ellipse>
                <ellipse id="medium" fill="#CA1A31" cx="7.96059113" cy="23.3959391" rx="4.96551724" ry="4.95685279"></ellipse>
                <ellipse id="medium" fill="#16427F" cx="24.1970443" cy="23.3959391" rx="4.96551724" ry="4.95685279"></ellipse>
                <ellipse id="medium" fill="#58889C" cx="24.1970443" cy="8.44670051" rx="4.96551724" ry="4.95685279"></ellipse>
                <ellipse id="large" fill="#EA7729" cx="16.0788177" cy="15.9213198" rx="5.51724138" ry="5.50761421"></ellipse>
            </g>
            <path d="M42,27.6343115 L42,4.32505643 L44.0675669,4.32505643 L44.0675669,27.6343115 L42,27.6343115 Z M47.6994114,27.6343115 L47.6994114,11.4085779 L49.7397735,11.4085779 L49.7397735,12.9390519 C50.1750529,12.3069946 50.6964735,11.8329587 51.304051,11.51693 C51.9116286,11.2009014 52.5418674,11.0428894 53.1947866,11.0428894 C54.0018672,11.0428894 54.7114526,11.3792291 55.3235643,12.0519187 C55.935676,12.7246083 56.2417273,13.6704228 56.2417273,14.8893905 L56.2417273,27.6343115 L54.1741604,27.6343115 L54.1741604,14.8487585 C54.1741604,14.0451427 54.0154671,13.4604984 53.6980759,13.0948081 C53.3806846,12.7291178 52.9635481,12.5462754 52.4466538,12.5462754 C52.0204427,12.5462754 51.5647664,12.6930008 51.0796112,12.986456 C50.594456,13.2799112 50.1478479,13.6794557 49.7397735,14.1851016 L49.7397735,27.6343115 L47.6994114,27.6343115 Z M60.0368007,23.8013544 L60.0368007,12.5462754 L57.8196073,12.5462754 L57.8196073,11.4085779 L60.0368007,11.4085779 L60.0368007,5.6523702 L62.0771628,5.6523702 L62.0771628,11.4085779 L64.6888262,11.4085779 L64.6888262,12.5462754 L62.0771628,12.5462754 L62.0771628,23.7065463 C62.0771628,24.0948101 62.0816969,24.3995474 62.0907652,24.6207675 C62.0998335,24.8419876 62.1293051,25.0812628 62.1791809,25.3386005 C62.2290567,25.5959381 62.3016021,25.7878098 62.3968195,25.9142212 C62.4920369,26.0406327 62.6280597,26.1467264 62.8048919,26.2325056 C62.9817242,26.3182849 63.2016277,26.3611738 63.464609,26.3611738 C63.9089567,26.3611738 64.3079569,26.3250568 64.6616214,26.2528217 L64.6616214,27.6478555 C64.0540439,27.8013552 63.4646118,27.8781038 62.8933076,27.8781038 C62.3854816,27.8781038 61.9502087,27.7990979 61.5874759,27.6410835 C61.224743,27.4830692 60.9458963,27.2866829 60.7509274,27.0519187 C60.5559585,26.8171546 60.4017994,26.5056453 60.2884454,26.1173815 C60.1750914,25.7291177 60.1048129,25.3656902 60.077608,25.027088 C60.050403,24.6884859 60.0368007,24.2799121 60.0368007,23.8013544 Z M68.592719,18.1264108 L73.1087204,18.1264108 C73.0996521,17.7652352 73.0996521,17.3995504 73.1087204,17.0293454 C73.1177887,16.6591404 73.1132546,16.2866836 73.095118,15.9119639 C73.0769813,15.5372442 73.0520438,15.1783313 73.0203047,14.8352144 C72.9885656,14.4920976 72.9273553,14.1738164 72.8366721,13.8803612 C72.7459889,13.586906 72.6326366,13.3318295 72.4966118,13.1151242 C72.3605869,12.8984188 72.1746891,12.7268629 71.9389128,12.6004515 C71.7031364,12.47404 71.4310909,12.4108352 71.122768,12.4108352 C70.6240103,12.4108352 70.2136749,12.5011278 69.8917495,12.6817156 C69.5698241,12.8623034 69.320449,13.0744909 69.1436168,13.3182844 C68.9667845,13.562078 68.8375629,13.9729091 68.755948,14.5507901 C68.6743331,15.1286711 68.6267251,15.6365667 68.6131226,16.0744921 C68.5995201,16.5124175 68.592719,17.1963836 68.592719,18.1264108 Z M66.5251521,20.1580135 L66.5251521,17.8961625 C66.5342204,16.7674887 66.6158341,15.7900719 66.7699955,14.9638826 C66.924157,14.1376934 67.1259241,13.4763005 67.375303,12.979684 C67.6246818,12.4830675 67.9466024,12.0880376 68.3410743,11.7945824 C68.7355463,11.5011272 69.1413476,11.3024836 69.5584904,11.1986456 C69.9756332,11.0948076 70.4653152,11.0428894 71.0275511,11.0428894 C72.4875508,11.0428894 73.5371932,11.5575569 74.1765099,12.5869074 C74.8158265,13.616258 75.13548,15.2415239 75.13548,17.462754 C75.13548,18.1399582 75.1264119,18.6952574 75.1082752,19.1286682 L68.5791166,19.1286682 L68.5791166,21.6072235 C68.5791166,22.6726916 68.6312586,23.546272 68.7355443,24.227991 C68.83983,24.90971 69.0053244,25.4221202 69.2320324,25.765237 C69.4587405,26.1083539 69.7081156,26.3385999 69.9801652,26.4559819 C70.2522148,26.573364 70.5968059,26.6320542 71.0139487,26.6320542 C71.6215262,26.6320542 72.1316116,26.3273168 72.5442202,25.717833 C72.9568288,25.1083491 73.1676641,24.0903006 73.1767325,22.6636569 L75.0810704,22.6636569 C75.0266605,23.2776554 74.954115,23.8239254 74.8634318,24.3024831 C74.7727486,24.7810408 74.6299246,25.2595913 74.4349557,25.738149 C74.2399868,26.2167067 73.9996799,26.6139939 73.7140278,26.9300226 C73.4283757,27.2460512 73.0588471,27.503385 72.6054311,27.7020316 C72.152015,27.9006782 71.6305944,28 71.0411535,28 C69.8894767,28 68.9939934,27.7720113 68.3546768,27.3160271 C67.7153601,26.8600429 67.2460815,26.0654684 66.9468269,24.9322799 C66.6475723,23.7990914 66.5070155,22.2076852 66.5251521,20.1580135 Z M77.9647821,27.6343115 L77.9647821,11.4085779 L80.0051442,11.4085779 L80.0051442,13.6975169 C80.2590572,12.8577836 80.7170005,12.2279931 81.378988,11.8081264 C82.0409754,11.3882598 82.7256234,11.1693003 83.4329525,11.1512415 L83.4329525,13.1963883 C83.3332009,13.1602707 83.2289168,13.1422122 83.1200969,13.1422122 C81.0434514,13.1422122 80.0051442,13.9367866 80.0051442,15.5259594 L80.0051442,27.6343115 L77.9647821,27.6343115 Z M90.7510511,24.3295711 L90.7510511,18.6139955 C90.0890636,19.0744944 89.567643,19.4446939 89.1867735,19.724605 C88.805904,20.0045161 88.4046368,20.3318266 87.9829599,20.7065463 C87.5612829,21.081266 87.2438965,21.4221204 87.0307909,21.7291196 C86.8176854,22.0361189 86.6408558,22.3860026 86.5002968,22.778781 C86.3597378,23.1715595 86.2894594,23.5846479 86.2894594,24.0180587 C86.2894594,24.7945863 86.4526867,25.3702013 86.7791463,25.744921 C87.1056058,26.1196407 87.4910037,26.3069977 87.9353514,26.3069977 C88.4522457,26.3069977 88.9759334,26.121898 89.5064302,25.751693 C90.036927,25.381488 90.4517965,24.9074521 90.7510511,24.3295711 Z M91.1591235,27.6343115 L90.9006776,25.6704289 C90.4653982,26.4288977 89.9281083,27.00677 89.2887916,27.4040632 C88.649475,27.8013564 88.0396395,28 87.459267,28 C86.6159131,28 85.8677878,27.6681749 85.2148687,27.0045147 C84.5619495,26.3408545 84.2354949,25.4717887 84.2354949,24.3972912 C84.2354949,24.1083507 84.240029,23.8758474 84.2490973,23.6997743 C84.2581656,23.5237012 84.2831031,23.2957125 84.3239106,23.0158014 C84.364718,22.7358902 84.4236612,22.5011296 84.5007419,22.3115124 C84.5778227,22.1218952 84.691175,21.8893919 84.8408023,21.6139955 C84.9904296,21.3385991 85.1740603,21.0948092 85.3917001,20.8826185 C85.6093398,20.6704278 85.8813853,20.4266379 86.2078449,20.1512415 C86.5343044,19.8758451 86.9106341,19.6139967 87.3368452,19.3656885 C87.7630563,19.1173802 88.2640736,18.8510172 88.839912,18.5665914 C89.4157504,18.2821656 90.0527904,17.9954868 90.7510511,17.7065463 L90.7510511,17.5711061 C90.7510511,16.6501083 90.7102443,15.8623058 90.6286294,15.2076749 C90.5470145,14.5530441 90.4472644,14.0474058 90.3293763,13.6907449 C90.2114881,13.334084 90.059596,13.0564344 89.8736954,12.8577878 C89.6877948,12.6591412 89.5132323,12.534989 89.3500025,12.4853273 C89.1867727,12.4356657 88.9872726,12.4108352 88.7514963,12.4108352 C88.5066516,12.4108352 88.2890151,12.4446949 88.0985804,12.5124153 C87.9081457,12.5801358 87.7041115,12.71106 87.4864718,12.9051919 C87.2688321,13.0993238 87.0874684,13.4153477 86.9423752,13.8532731 C86.7972821,14.2911986 86.7066002,14.8397258 86.670327,15.4988713 L86.670327,15.5936795 L84.5483504,15.5936795 C84.6571703,14.1760651 85.0765738,13.0632095 85.8065737,12.255079 C86.5365735,11.4469486 87.4955341,11.0428894 88.6834842,11.0428894 C89.3454716,11.0428894 89.9303696,11.1489831 90.4381956,11.3611738 C90.9460216,11.5733645 91.3472888,11.8442421 91.6420092,12.1738149 C91.9367296,12.5033877 92.1747695,12.8984176 92.3561359,13.3589165 C92.5375023,13.8194154 92.6599228,14.2663635 92.7234011,14.6997743 C92.7868793,15.133185 92.818618,15.5981916 92.818618,16.0948081 L92.818618,23.8961625 C92.818618,24.4650141 92.8390214,25.060945 92.8798289,25.6839729 C92.9206363,26.3070009 92.9637102,26.7855514 93.0090518,27.1196388 L93.0634614,27.6343115 L91.1591235,27.6343115 Z M95.6479201,19.9413093 L95.6479201,19.1015801 C95.6479201,18.3792289 95.6524542,17.826187 95.6615225,17.4424379 C95.6705908,17.0586888 95.7023295,16.534992 95.7567394,15.8713318 C95.8111493,15.2076716 95.8904959,14.6907468 95.9947816,14.3205418 C96.0990673,13.9503367 96.2600276,13.5259618 96.4776673,13.0474041 C96.695307,12.5688464 96.9582844,12.2054188 97.2666073,11.9571106 C97.5749302,11.7088024 97.9693963,11.4943576 98.4500173,11.3137698 C98.9306383,11.1331819 99.4792635,11.0428894 100.095909,11.0428894 C100.721624,11.0428894 101.272516,11.1444685 101.748603,11.3476298 C102.22469,11.5507911 102.610087,11.8148968 102.904808,12.1399549 C103.199528,12.4650129 103.442102,12.875844 103.632537,13.3724605 C103.822972,13.869077 103.958994,14.365686 104.040609,14.8623025 C104.122224,15.358919 104.181167,15.927762 104.217441,16.5688488 C104.217441,16.5869075 104.219708,16.611738 104.224242,16.6433409 C104.228776,16.6749437 104.231043,16.6997742 104.231043,16.717833 L102.190681,16.717833 L102.190681,16.5959368 C102.136271,15.0699698 101.957175,13.9909738 101.653386,13.3589165 C101.349597,12.7268591 100.830443,12.4108352 100.095909,12.4108352 C99.7422449,12.4108352 99.4361936,12.4604961 99.1777465,12.5598194 C98.9192993,12.6591427 98.7016629,12.8352132 98.5248306,13.0880361 C98.3479983,13.3408591 98.2051744,13.6275379 98.0963546,13.9480813 C97.9875347,14.2686246 97.9013869,14.7020289 97.8379087,15.248307 C97.7744304,15.7945851 97.7336236,16.3566563 97.715487,16.9345372 C97.6973503,17.5124182 97.6882821,18.2347586 97.6882821,19.1015801 L97.6882821,19.9413093 C97.6882821,22.478568 97.8469754,24.2279862 98.1643666,25.1896163 C98.4817579,26.1512463 99.125599,26.6320542 100.095909,26.6320542 C100.812307,26.6320542 101.322392,26.307001 101.626181,25.6568849 C101.92997,25.0067688 102.118135,23.8916558 102.190681,22.3115124 L102.190681,22.1760722 L104.244646,22.1760722 L104.244646,22.2708804 C104.217441,22.957114 104.165299,23.5598168 104.088218,24.0790068 C104.011137,24.5981967 103.879648,25.1151216 103.693748,25.6297968 C103.507847,26.1444721 103.26754,26.5665898 102.97282,26.8961625 C102.678099,27.2257353 102.288168,27.4920983 101.803012,27.6952596 C101.317857,27.8984209 100.748829,28 100.095909,28 C99.5518101,28 99.0621281,27.9458245 98.6268487,27.8374718 C98.1915693,27.7291191 97.8220407,27.548534 97.518252,27.2957111 C97.2144632,27.0428881 96.9514858,26.7923263 96.729312,26.5440181 C96.5071381,26.2957098 96.3303085,25.9413116 96.1988178,25.4808126 C96.0673272,25.0203137 95.963043,24.6275411 95.8859623,24.3024831 C95.8088816,23.977425 95.7522054,23.5124184 95.7159321,22.9074492 C95.6796589,22.30248 95.6592554,21.8261868 95.6547213,21.4785553 C95.6501871,21.1309238 95.6479201,20.6185135 95.6479201,19.9413093 Z M107.577237,23.8013544 L107.577237,12.5462754 L105.360044,12.5462754 L105.360044,11.4085779 L107.577237,11.4085779 L107.577237,5.6523702 L109.617599,5.6523702 L109.617599,11.4085779 L112.229263,11.4085779 L112.229263,12.5462754 L109.617599,12.5462754 L109.617599,23.7065463 C109.617599,24.0948101 109.622133,24.3995474 109.631201,24.6207675 C109.64027,24.8419876 109.669741,25.0812628 109.719617,25.3386005 C109.769493,25.5959381 109.842038,25.7878098 109.937256,25.9142212 C110.032473,26.0406327 110.168496,26.1467264 110.345328,26.2325056 C110.52216,26.3182849 110.742064,26.3611738 111.005045,26.3611738 C111.449393,26.3611738 111.848393,26.3250568 112.202058,26.2528217 L112.202058,27.6478555 C111.59448,27.8013552 111.005048,27.8781038 110.433744,27.8781038 C109.925918,27.8781038 109.490645,27.7990979 109.127912,27.6410835 C108.765179,27.4830692 108.486333,27.2866829 108.291364,27.0519187 C108.096395,26.8171546 107.942236,26.5056453 107.828882,26.1173815 C107.715528,25.7291177 107.645249,25.3656902 107.618044,25.027088 C107.590839,24.6884859 107.577237,24.2799121 107.577237,23.8013544 Z M114.58248,7.69751693 L114.58248,5.2731377 L116.622842,5.2731377 L116.622842,7.69751693 L114.58248,7.69751693 Z M114.58248,27.6343115 L114.58248,11.4085779 L116.622842,11.4085779 L116.622842,27.6343115 L114.58248,27.6343115 Z M122.335856,27.6343115 L118.635999,11.4085779 L120.621952,11.4085779 L123.532868,25.7923251 L126.171737,11.4085779 L128.116882,11.4085779 L124.716278,27.6343115 L122.335856,27.6343115 Z M131.88475,18.1264108 L136.400752,18.1264108 C136.391684,17.7652352 136.391684,17.3995504 136.400752,17.0293454 C136.40982,16.6591404 136.405286,16.2866836 136.387149,15.9119639 C136.369013,15.5372442 136.344075,15.1783313 136.312336,14.8352144 C136.280597,14.4920976 136.219387,14.1738164 136.128704,13.8803612 C136.03802,13.586906 135.924668,13.3318295 135.788643,13.1151242 C135.652618,12.8984188 135.466721,12.7268629 135.230944,12.6004515 C134.995168,12.47404 134.723122,12.4108352 134.414799,12.4108352 C133.916042,12.4108352 133.505706,12.5011278 133.183781,12.6817156 C132.861856,12.8623034 132.61248,13.0744909 132.435648,13.3182844 C132.258816,13.562078 132.129594,13.9729091 132.047979,14.5507901 C131.966365,15.1286711 131.918757,15.6365667 131.905154,16.0744921 C131.891552,16.5124175 131.88475,17.1963836 131.88475,18.1264108 Z M129.817184,20.1580135 L129.817184,17.8961625 C129.826252,16.7674887 129.907866,15.7900719 130.062027,14.9638826 C130.216188,14.1376934 130.417956,13.4763005 130.667334,12.979684 C130.916713,12.4830675 131.238634,12.0880376 131.633106,11.7945824 C132.027578,11.5011272 132.433379,11.3024836 132.850522,11.1986456 C133.267665,11.0948076 133.757347,11.0428894 134.319583,11.0428894 C135.779582,11.0428894 136.829225,11.5575569 137.468541,12.5869074 C138.107858,13.616258 138.427512,15.2415239 138.427512,17.462754 C138.427512,18.1399582 138.418443,18.6952574 138.400307,19.1286682 L131.871148,19.1286682 L131.871148,21.6072235 C131.871148,22.6726916 131.92329,23.546272 132.027576,24.227991 C132.131861,24.90971 132.297356,25.4221202 132.524064,25.765237 C132.750772,26.1083539 133.000147,26.3385999 133.272197,26.4559819 C133.544246,26.573364 133.888837,26.6320542 134.30598,26.6320542 C134.913558,26.6320542 135.423643,26.3273168 135.836252,25.717833 C136.24886,25.1083491 136.459696,24.0903006 136.468764,22.6636569 L138.373102,22.6636569 C138.318692,23.2776554 138.246146,23.8239254 138.155463,24.3024831 C138.06478,24.7810408 137.921956,25.2595913 137.726987,25.738149 C137.532018,26.2167067 137.291711,26.6139939 137.006059,26.9300226 C136.720407,27.2460512 136.350879,27.503385 135.897463,27.7020316 C135.444046,27.9006782 134.922626,28 134.333185,28 C133.181508,28 132.286025,27.7720113 131.646708,27.3160271 C131.007392,26.8600429 130.538113,26.0654684 130.238858,24.9322799 C129.939604,23.7990914 129.799047,22.2076852 129.817184,20.1580135 Z M146.697779,20.8758465 L146.697779,11.1106095 C146.697779,10.2799056 146.752188,9.52596275 146.861008,8.84875847 C146.969828,8.17155418 147.162527,7.52596244 147.439111,6.91196388 C147.715694,6.29796533 148.071621,5.78104047 148.5069,5.36117381 C148.94218,4.94130716 149.497606,4.60948203 150.173196,4.36568849 C150.848786,4.12189494 151.630917,4 152.519612,4 C156.183214,4 158.014987,6.37017946 158.014987,11.1106095 L158.014987,12.0586907 L156.042637,12.0586907 L156.042637,10.6501129 C156.042637,9.90067345 155.985961,9.23702321 155.872607,8.65914221 C155.759253,8.08126122 155.571088,7.55982174 155.308107,7.09480813 C155.045126,6.62979451 154.680131,6.27313894 154.213113,6.0248307 C153.746094,5.77652246 153.1816,5.6523702 152.519612,5.6523702 C151.921103,5.6523702 151.399682,5.73589081 150.955335,5.90293454 C150.510987,6.06997826 150.150527,6.29796695 149.873943,6.58690745 C149.597359,6.87584795 149.375188,7.23701815 149.207424,7.67042889 C149.039661,8.10383964 148.924041,8.55755971 148.860563,9.03160271 C148.797085,9.50564571 148.765346,10.0451437 148.765346,10.6501129 L148.765346,21.3363431 C148.765346,22.1038413 148.819755,22.7697489 148.928575,23.3340858 C149.037395,23.8984227 149.22556,24.4176049 149.493075,24.8916479 C149.760591,25.3656909 150.148256,25.7268611 150.656082,25.9751693 C151.163908,26.2234775 151.785078,26.3476298 152.519612,26.3476298 C153.1816,26.3476298 153.746094,26.2234775 154.213113,25.9751693 C154.680131,25.7268611 155.045126,25.3679482 155.308107,24.8984199 C155.571088,24.4288916 155.759253,23.9051948 155.872607,23.3273138 C155.985961,22.7494328 156.042637,22.0857825 156.042637,21.3363431 L156.042637,19.738149 L158.014987,19.738149 L158.014987,20.8758465 C158.014987,21.697521 157.965112,22.4469492 157.865361,23.1241535 C157.765609,23.8013578 157.586513,24.4492068 157.328065,25.0677201 C157.069618,25.6862333 156.736363,26.2054155 156.328288,26.6252822 C155.920214,27.0451488 155.394259,27.3792313 154.750408,27.6275395 C154.106557,27.8758477 153.362966,28 152.519612,28 C151.61278,28 150.817047,27.8758477 150.132389,27.6275395 C149.44773,27.3792313 148.890037,27.0451488 148.459292,26.6252822 C148.028546,26.2054155 147.679421,25.6862333 147.411906,25.0677201 C147.14439,24.4492068 146.958493,23.8036151 146.854207,23.1309255 C146.749921,22.4582359 146.697779,21.7065504 146.697779,20.8758465 Z M161.170747,27.6343115 L161.170747,4.32505643 L163.211109,4.32505643 L163.211109,27.6343115 L161.170747,27.6343115 Z M166.992581,7.69751693 L166.992581,5.2731377 L169.032943,5.2731377 L169.032943,7.69751693 L166.992581,7.69751693 Z M166.992581,27.6343115 L166.992581,11.4085779 L169.032943,11.4085779 L169.032943,27.6343115 L166.992581,27.6343115 Z M174.242667,18.1264108 L178.758668,18.1264108 C178.7496,17.7652352 178.7496,17.3995504 178.758668,17.0293454 C178.767737,16.6591404 178.763203,16.2866836 178.745066,15.9119639 C178.726929,15.5372442 178.701992,15.1783313 178.670253,14.8352144 C178.638514,14.4920976 178.577303,14.1738164 178.48662,13.8803612 C178.395937,13.586906 178.282585,13.3318295 178.14656,13.1151242 C178.010535,12.8984188 177.824637,12.7268629 177.588861,12.6004515 C177.353085,12.47404 177.081039,12.4108352 176.772716,12.4108352 C176.273958,12.4108352 175.863623,12.5011278 175.541698,12.6817156 C175.219772,12.8623034 174.970397,13.0744909 174.793565,13.3182844 C174.616733,13.562078 174.487511,13.9729091 174.405896,14.5507901 C174.324281,15.1286711 174.276673,15.6365667 174.263071,16.0744921 C174.249468,16.5124175 174.242667,17.1963836 174.242667,18.1264108 Z M172.1751,20.1580135 L172.1751,17.8961625 C172.184168,16.7674887 172.265782,15.7900719 172.419944,14.9638826 C172.574105,14.1376934 172.775872,13.4763005 173.025251,12.979684 C173.27463,12.4830675 173.59655,12.0880376 173.991022,11.7945824 C174.385494,11.5011272 174.791296,11.3024836 175.208438,11.1986456 C175.625581,11.0948076 176.115263,11.0428894 176.677499,11.0428894 C178.137499,11.0428894 179.187141,11.5575569 179.826458,12.5869074 C180.465775,13.616258 180.785428,15.2415239 180.785428,17.462754 C180.785428,18.1399582 180.77636,18.6952574 180.758223,19.1286682 L174.229065,19.1286682 L174.229065,21.6072235 C174.229065,22.6726916 174.281207,23.546272 174.385492,24.227991 C174.489778,24.90971 174.655272,25.4221202 174.881981,25.765237 C175.108689,26.1083539 175.358064,26.3385999 175.630113,26.4559819 C175.902163,26.573364 176.246754,26.6320542 176.663897,26.6320542 C177.271474,26.6320542 177.78156,26.3273168 178.194168,25.717833 C178.606777,25.1083491 178.817612,24.0903006 178.826681,22.6636569 L180.731018,22.6636569 C180.676609,23.2776554 180.604063,23.8239254 180.51338,24.3024831 C180.422697,24.7810408 180.279873,25.2595913 180.084904,25.738149 C179.889935,26.2167067 179.649628,26.6139939 179.363976,26.9300226 C179.078324,27.2460512 178.708795,27.503385 178.255379,27.7020316 C177.801963,27.9006782 177.280542,28 176.691102,28 C175.539425,28 174.643941,27.7720113 174.004625,27.3160271 C173.365308,26.8600429 172.89603,26.0654684 172.596775,24.9322799 C172.29752,23.7990914 172.156964,22.2076852 172.1751,20.1580135 Z M183.61473,27.6343115 L183.61473,11.4085779 L185.655092,11.4085779 L185.655092,12.9390519 C186.090372,12.3069946 186.611792,11.8329587 187.21937,11.51693 C187.826947,11.2009014 188.457186,11.0428894 189.110105,11.0428894 C189.917186,11.0428894 190.626771,11.3792291 191.238883,12.0519187 C191.850995,12.7246083 192.157046,13.6704228 192.157046,14.8893905 L192.157046,27.6343115 L190.089479,27.6343115 L190.089479,14.8487585 C190.089479,14.0451427 189.930786,13.4604984 189.613395,13.0948081 C189.296003,12.7291178 188.878867,12.5462754 188.361973,12.5462754 C187.935762,12.5462754 187.480085,12.6930008 186.99493,12.986456 C186.509775,13.2799112 186.063167,13.6794557 185.655092,14.1851016 L185.655092,27.6343115 L183.61473,27.6343115 Z M195.95212,23.8013544 L195.95212,12.5462754 L193.734926,12.5462754 L193.734926,11.4085779 L195.95212,11.4085779 L195.95212,5.6523702 L197.992482,5.6523702 L197.992482,11.4085779 L200.604145,11.4085779 L200.604145,12.5462754 L197.992482,12.5462754 L197.992482,23.7065463 C197.992482,24.0948101 197.997016,24.3995474 198.006084,24.6207675 C198.015152,24.8419876 198.044624,25.0812628 198.0945,25.3386005 C198.144375,25.5959381 198.216921,25.7878098 198.312138,25.9142212 C198.407356,26.0406327 198.543378,26.1467264 198.720211,26.2325056 C198.897043,26.3182849 199.116946,26.3611738 199.379928,26.3611738 C199.824276,26.3611738 200.223276,26.3250568 200.57694,26.2528217 L200.57694,27.6478555 C199.969363,27.8013552 199.379931,27.8781038 198.808626,27.8781038 C198.3008,27.8781038 197.865528,27.7990979 197.502795,27.6410835 C197.140062,27.4830692 196.861215,27.2866829 196.666246,27.0519187 C196.471277,26.8171546 196.317118,26.5056453 196.203764,26.1173815 C196.09041,25.7291177 196.020132,25.3656902 195.992927,25.027088 C195.965722,24.6884859 195.95212,24.2799121 195.95212,23.8013544 Z M208.670376,27.6343115 L208.670376,4.32505643 L213.934511,4.32505643 C214.823206,4.32505643 215.612138,4.44469406 216.301331,4.68397291 C216.990523,4.92325176 217.559552,5.24830494 218.008433,5.65914221 C218.457315,6.06997948 218.824577,6.57336045 219.110229,7.16930023 C219.395881,7.76524 219.599915,8.39728786 219.722338,9.06546275 C219.84476,9.73363765 219.90597,10.4695219 219.90597,11.2731377 L219.90597,20.7539503 C219.90597,25.3408807 217.915504,27.6343115 213.934511,27.6343115 L208.670376,27.6343115 Z M210.737943,25.9819413 L213.934511,25.9819413 C216.537119,25.9819413 217.838403,24.3927924 217.838403,21.214447 L217.838403,10.8126411 C217.838403,7.58914867 216.537119,5.97742664 213.934511,5.97742664 L210.737943,5.97742664 L210.737943,25.9819413 Z M228.992383,24.3295711 L228.992383,18.6139955 C228.330395,19.0744944 227.808975,19.4446939 227.428105,19.724605 C227.047236,20.0045161 226.645968,20.3318266 226.224291,20.7065463 C225.802615,21.081266 225.485228,21.4221204 225.272122,21.7291196 C225.059017,22.0361189 224.882187,22.3860026 224.741628,22.778781 C224.601069,23.1715595 224.530791,23.5846479 224.530791,24.0180587 C224.530791,24.7945863 224.694018,25.3702013 225.020478,25.744921 C225.346937,26.1196407 225.732335,26.3069977 226.176683,26.3069977 C226.693577,26.3069977 227.217265,26.121898 227.747762,25.751693 C228.278259,25.381488 228.693128,24.9074521 228.992383,24.3295711 Z M229.400455,27.6343115 L229.142009,25.6704289 C228.70673,26.4288977 228.16944,27.00677 227.530123,27.4040632 C226.890807,27.8013564 226.280971,28 225.700599,28 C224.857245,28 224.109119,27.6681749 223.4562,27.0045147 C222.803281,26.3408545 222.476826,25.4717887 222.476826,24.3972912 C222.476826,24.1083507 222.481361,23.8758474 222.490429,23.6997743 C222.499497,23.5237012 222.524435,23.2957125 222.565242,23.0158014 C222.60605,22.7358902 222.664993,22.5011296 222.742074,22.3115124 C222.819154,22.1218952 222.932507,21.8893919 223.082134,21.6139955 C223.231761,21.3385991 223.415392,21.0948092 223.633032,20.8826185 C223.850671,20.6704278 224.122717,20.4266379 224.449176,20.1512415 C224.775636,19.8758451 225.151966,19.6139967 225.578177,19.3656885 C226.004388,19.1173802 226.505405,18.8510172 227.081244,18.5665914 C227.657082,18.2821656 228.294122,17.9954868 228.992383,17.7065463 L228.992383,17.5711061 C228.992383,16.6501083 228.951576,15.8623058 228.869961,15.2076749 C228.788346,14.5530441 228.688596,14.0474058 228.570708,13.6907449 C228.45282,13.334084 228.300928,13.0564344 228.115027,12.8577878 C227.929126,12.6591412 227.754564,12.534989 227.591334,12.4853273 C227.428104,12.4356657 227.228604,12.4108352 226.992828,12.4108352 C226.747983,12.4108352 226.530347,12.4446949 226.339912,12.5124153 C226.149477,12.5801358 225.945443,12.71106 225.727803,12.9051919 C225.510164,13.0993238 225.3288,13.4153477 225.183707,13.8532731 C225.038614,14.2911986 224.947932,14.8397258 224.911659,15.4988713 L224.911659,15.5936795 L222.789682,15.5936795 C222.898502,14.1760651 223.317905,13.0632095 224.047905,12.255079 C224.777905,11.4469486 225.736866,11.0428894 226.924816,11.0428894 C227.586803,11.0428894 228.171701,11.1489831 228.679527,11.3611738 C229.187353,11.5733645 229.58862,11.8442421 229.883341,12.1738149 C230.178061,12.5033877 230.416101,12.8984176 230.597467,13.3589165 C230.778834,13.8194154 230.901254,14.2663635 230.964733,14.6997743 C231.028211,15.133185 231.05995,15.5981916 231.05995,16.0948081 L231.05995,23.8961625 C231.05995,24.4650141 231.080353,25.060945 231.12116,25.6839729 C231.161968,26.3070009 231.205042,26.7855514 231.250383,27.1196388 L231.304793,27.6343115 L229.400455,27.6343115 Z M233.222733,23.5711061 L234.787011,23.0428894 C234.913967,23.4401826 235.070394,23.8239259 235.256294,24.1941309 C235.442195,24.5643359 235.666632,24.9345354 235.929614,25.3047404 C236.192595,25.6749454 236.50318,25.9729108 236.861379,26.1986456 C237.219578,26.4243804 237.59364,26.537246 237.983578,26.537246 C238.699976,26.537246 239.237266,26.3205439 239.595464,25.8871332 C239.953663,25.4537224 240.13276,24.8668209 240.13276,24.1264108 C240.13276,23.0880309 239.203271,21.7562158 237.344265,20.1309255 L236.160855,19.1015801 C235.263091,18.3160232 234.585244,17.6139986 234.127294,16.9954853 C233.669344,16.3769721 233.440372,15.6839767 233.440372,14.9164786 C233.440372,13.6975108 233.812168,12.7516964 234.55577,12.0790068 C235.299372,11.4063172 236.292339,11.0699774 237.534699,11.0699774 C238.124139,11.0699774 238.659162,11.1828431 239.139783,11.4085779 C239.620404,11.6343126 240.023939,11.9480793 240.350398,12.3498871 C240.676858,12.751695 240.95117,13.1850993 241.173344,13.6501129 C241.395518,14.1151265 241.574615,14.6275367 241.71064,15.1873589 L239.901519,15.7426637 C239.819904,15.2370178 239.690682,14.7584673 239.51385,14.3069977 C239.337017,13.8555282 239.064972,13.4469544 238.697705,13.0812641 C238.330438,12.7155738 237.911034,12.5327314 237.439482,12.5327314 C236.831904,12.5327314 236.349023,12.7381469 235.990825,13.1489842 C235.632626,13.5598215 235.453529,14.0902902 235.453529,14.7404063 C235.453529,15.2821698 235.628092,15.7968373 235.977222,16.2844244 C236.326353,16.7720115 236.831904,17.2957083 237.493891,17.8555305 L238.786121,18.96614 C239.203263,19.3273156 239.522917,19.6094798 239.745091,19.8126411 C239.967265,20.0158024 240.248378,20.3047385 240.58844,20.6794582 C240.928502,21.0541779 241.184679,21.392775 241.356977,21.6952596 C241.529275,21.9977442 241.685701,22.3611717 241.82626,22.785553 C241.966819,23.2099344 242.041632,23.6433386 242.0507,24.0857788 C242.0507,25.2957171 241.667569,26.2505608 240.901296,26.9503386 C240.135023,27.6501164 239.135255,28 237.901964,28 C236.704945,28 235.705178,27.582397 234.902631,26.7471783 C234.100085,25.9119597 233.540125,24.8532795 233.222733,23.5711061 Z M244.267893,27.6343115 L244.267893,4.32505643 L246.308255,4.32505643 L246.308255,12.9390519 C246.71633,12.3069946 247.228682,11.8329587 247.845328,11.51693 C248.461974,11.2009014 249.092213,11.0428894 249.736064,11.0428894 C250.570349,11.0428894 251.29127,11.3769718 251.898848,12.0451467 C252.506425,12.7133216 252.810209,13.6568788 252.810209,14.8758465 L252.810209,27.6343115 L250.742642,27.6343115 L250.742642,14.9841986 C250.742642,13.3589084 250.171347,12.5462754 249.028738,12.5462754 C248.58439,12.5462754 248.108311,12.70203 247.600485,13.013544 C247.092659,13.325058 246.66192,13.7200879 246.308255,14.1986456 L246.308255,27.6343115 L244.267893,27.6343115 Z M262.699164,20.2528217 L262.699164,18.96614 C262.699164,17.972907 262.676494,17.1060985 262.631152,16.3656885 C262.58581,15.6252785 262.510998,15.0270903 262.406712,14.5711061 C262.302426,14.1151219 262.198142,13.7449224 262.093857,13.4604966 C261.989571,13.1760708 261.853548,12.9706553 261.685784,12.8442438 C261.51802,12.7178323 261.368395,12.636569 261.236905,12.6004515 C261.105414,12.5643339 260.93992,12.5462754 260.740416,12.5462754 C259.887994,12.5462754 258.976642,13.0835161 258.006331,14.1580135 L258.006331,24.8577878 C258.414406,25.3453749 258.858747,25.7404048 259.339368,26.0428894 C259.819989,26.345374 260.26433,26.496614 260.672404,26.496614 C260.853771,26.496614 261.001129,26.4875847 261.114483,26.469526 C261.227837,26.4514672 261.36386,26.4018063 261.522555,26.3205418 C261.681251,26.2392772 261.810473,26.1173823 261.910224,25.9548533 C262.009976,25.7923242 262.11426,25.5598209 262.22308,25.2573363 C262.331899,24.9548518 262.418047,24.5869096 262.481525,24.1534989 C262.545004,23.7200881 262.597146,23.1738182 262.637953,22.5146727 C262.678761,21.8555272 262.699164,21.1015844 262.699164,20.2528217 Z M255.965969,27.6343115 L255.965969,4.32505643 L258.006331,4.32505643 L258.006331,12.9390519 C258.432542,12.316024 258.919957,11.8442454 259.468591,11.523702 C260.017224,11.2031587 260.577185,11.0428894 261.148489,11.0428894 C261.538427,11.0428894 261.878484,11.0812637 262.16867,11.1580135 C262.458856,11.2347634 262.776243,11.4288923 263.120839,11.7404063 C263.465435,12.0519203 263.746549,12.4785526 263.964189,13.020316 C264.181828,13.5620795 264.365459,14.3363381 264.515086,15.3431151 C264.664714,16.3498922 264.739526,17.5530404 264.739526,18.9525959 L264.739526,20.2392777 C264.739526,21.2144518 264.700986,22.0948042 264.623906,22.8803612 C264.546825,23.6659181 264.447075,24.3227965 264.324653,24.8510158 C264.20223,25.3792351 264.045804,25.8397272 263.855369,26.2325056 C263.664934,26.6252841 263.474503,26.9322788 263.284068,27.1534989 C263.093633,27.3747189 262.875997,27.5507894 262.631152,27.6817156 C262.386307,27.8126417 262.164137,27.8984197 261.964634,27.9390519 C261.765131,27.9796842 261.54296,28 261.298115,28 C259.919731,28 258.82248,27.3679521 258.006331,26.1038375 L258.006331,27.6343115 L255.965969,27.6343115 Z M267.623238,19.9413093 L267.623238,19.1015801 C267.623238,18.3792289 267.627772,17.826187 267.63684,17.4424379 C267.645909,17.0586888 267.67538,16.534992 267.725256,15.8713318 C267.775132,15.2076716 267.852211,14.6907468 267.956497,14.3205418 C268.060783,13.9503367 268.217209,13.5259618 268.42578,13.0474041 C268.634352,12.5688464 268.890528,12.2054188 269.194317,11.9571106 C269.498105,11.7088024 269.881236,11.4943576 270.343721,11.3137698 C270.806205,11.1331819 271.336694,11.0428894 271.935203,11.0428894 C272.533712,11.0428894 273.064201,11.1331819 273.526685,11.3137698 C273.98917,11.4943576 274.372301,11.7088024 274.676089,11.9571106 C274.979878,12.2054188 275.236054,12.5688464 275.444626,13.0474041 C275.653197,13.5259618 275.809623,13.9503367 275.913909,14.3205418 C276.018195,14.6907468 276.095274,15.2076716 276.14515,15.8713318 C276.195026,16.534992 276.224497,17.0586888 276.233566,17.4424379 C276.242634,17.826187 276.247168,18.3792289 276.247168,19.1015801 L276.247168,19.9413093 C276.247168,20.5462784 276.244901,21.0022558 276.240367,21.3092551 C276.235833,21.6162544 276.222231,22.0428867 276.19956,22.5891648 C276.176889,23.1354429 276.140616,23.5575606 276.09074,23.8555305 C276.040865,24.1535004 275.966052,24.5236998 275.866301,24.96614 C275.766549,25.4085801 275.646396,25.7516918 275.505837,25.9954853 C275.365278,26.2392789 275.186181,26.5078992 274.968541,26.8013544 C274.750902,27.0948096 274.501527,27.3160263 274.220409,27.4650113 C273.939291,27.6139962 273.606035,27.7404058 273.220631,27.8442438 C272.835228,27.9480818 272.406756,28 271.935203,28 C271.46365,28 271.035179,27.9480818 270.649775,27.8442438 C270.264371,27.7404058 269.931115,27.6139962 269.649998,27.4650113 C269.36888,27.3160263 269.119504,27.0948096 268.901865,26.8013544 C268.684225,26.5078992 268.505128,26.2392789 268.364569,25.9954853 C268.22401,25.7516918 268.103857,25.4085801 268.004105,24.96614 C267.904354,24.5236998 267.829541,24.1535004 267.779666,23.8555305 C267.72979,23.5575606 267.693517,23.1354429 267.670846,22.5891648 C267.648176,22.0428867 267.634573,21.6162544 267.630039,21.3092551 C267.625505,21.0022558 267.623238,20.5462784 267.623238,19.9413093 Z M269.6636,19.1015801 L269.6636,19.9413093 C269.6636,22.4875974 269.813225,24.2392729 270.11248,25.1963883 C270.411734,26.1535037 271.019303,26.6320542 271.935203,26.6320542 C272.851103,26.6320542 273.458672,26.1535037 273.757926,25.1963883 C274.057181,24.2392729 274.206806,22.4875974 274.206806,19.9413093 L274.206806,19.1015801 C274.206806,18.243788 274.197738,17.5214476 274.179601,16.9345372 C274.161465,16.3476269 274.122925,15.7855557 274.063981,15.248307 C274.005037,14.7110583 273.923423,14.2799113 273.819137,13.9548533 C273.714852,13.6297952 273.578829,13.3431164 273.411065,13.0948081 C273.243301,12.8464999 273.039267,12.6704294 272.798956,12.5665914 C272.558646,12.4627534 272.270731,12.4108352 271.935203,12.4108352 C271.599675,12.4108352 271.31176,12.4627534 271.07145,12.5665914 C270.831139,12.6704294 270.624838,12.8464999 270.45254,13.0948081 C270.280242,13.3431164 270.144219,13.6275379 270.044468,13.9480813 C269.944716,14.2686246 269.865369,14.7020289 269.806425,15.248307 C269.747481,15.7945851 269.708941,16.3566563 269.690805,16.9345372 C269.672668,17.5124182 269.6636,18.2347586 269.6636,19.1015801 Z M285.224761,24.3295711 L285.224761,18.6139955 C284.562774,19.0744944 284.041353,19.4446939 283.660484,19.724605 C283.279614,20.0045161 282.878347,20.3318266 282.45667,20.7065463 C282.034993,21.081266 281.717607,21.4221204 281.504501,21.7291196 C281.291396,22.0361189 281.114566,22.3860026 280.974007,22.778781 C280.833448,23.1715595 280.76317,23.5846479 280.76317,24.0180587 C280.76317,24.7945863 280.926397,25.3702013 281.252857,25.744921 C281.579316,26.1196407 281.964714,26.3069977 282.409062,26.3069977 C282.925956,26.3069977 283.449644,26.121898 283.98014,25.751693 C284.510637,25.381488 284.925507,24.9074521 285.224761,24.3295711 Z M285.632834,27.6343115 L285.374388,25.6704289 C284.939108,26.4288977 284.401819,27.00677 283.762502,27.4040632 C283.123185,27.8013564 282.51335,28 281.932977,28 C281.089623,28 280.341498,27.6681749 279.688579,27.0045147 C279.03566,26.3408545 278.709205,25.4717887 278.709205,24.3972912 C278.709205,24.1083507 278.713739,23.8758474 278.722808,23.6997743 C278.731876,23.5237012 278.756813,23.2957125 278.797621,23.0158014 C278.838428,22.7358902 278.897371,22.5011296 278.974452,22.3115124 C279.051533,22.1218952 279.164885,21.8893919 279.314513,21.6139955 C279.46414,21.3385991 279.647771,21.0948092 279.86541,20.8826185 C280.08305,20.6704278 280.355096,20.4266379 280.681555,20.1512415 C281.008015,19.8758451 281.384344,19.6139967 281.810555,19.3656885 C282.236767,19.1173802 282.737784,18.8510172 283.313622,18.5665914 C283.889461,18.2821656 284.526501,17.9954868 285.224761,17.7065463 L285.224761,17.5711061 C285.224761,16.6501083 285.183955,15.8623058 285.10234,15.2076749 C285.020725,14.5530441 284.920975,14.0474058 284.803087,13.6907449 C284.685198,13.334084 284.533306,13.0564344 284.347406,12.8577878 C284.161505,12.6591412 283.986942,12.534989 283.823713,12.4853273 C283.660483,12.4356657 283.460983,12.4108352 283.225207,12.4108352 C282.980362,12.4108352 282.762725,12.4446949 282.572291,12.5124153 C282.381856,12.5801358 282.177822,12.71106 281.960182,12.9051919 C281.742542,13.0993238 281.561179,13.4153477 281.416085,13.8532731 C281.270992,14.2911986 281.18031,14.8397258 281.144037,15.4988713 L281.144037,15.5936795 L279.022061,15.5936795 C279.13088,14.1760651 279.550284,13.0632095 280.280284,12.255079 C281.010284,11.4469486 281.969244,11.0428894 283.157194,11.0428894 C283.819182,11.0428894 284.40408,11.1489831 284.911906,11.3611738 C285.419732,11.5733645 285.820999,11.8442421 286.115719,12.1738149 C286.41044,12.5033877 286.64848,12.8984176 286.829846,13.3589165 C287.011213,13.8194154 287.133633,14.2663635 287.197111,14.6997743 C287.26059,15.133185 287.292328,15.5981916 287.292328,16.0948081 L287.292328,23.8961625 C287.292328,24.4650141 287.312732,25.060945 287.353539,25.6839729 C287.394347,26.3070009 287.43742,26.7855514 287.482762,27.1196388 L287.537172,27.6343115 L285.632834,27.6343115 Z M290.312064,27.6343115 L290.312064,11.4085779 L292.352426,11.4085779 L292.352426,13.6975169 C292.606339,12.8577836 293.064283,12.2279931 293.72627,11.8081264 C294.388257,11.3882598 295.072905,11.1693003 295.780234,11.1512415 L295.780234,13.1963883 C295.680483,13.1602707 295.576199,13.1422122 295.467379,13.1422122 C293.390733,13.1422122 292.352426,13.9367866 292.352426,15.5259594 L292.352426,27.6343115 L290.312064,27.6343115 Z M303.724044,24.8577878 L303.724044,14.1580135 C302.753734,13.0835161 301.842381,12.5462754 300.989959,12.5462754 C300.790456,12.5462754 300.624961,12.5643339 300.493471,12.6004515 C300.36198,12.636569 300.212355,12.7178323 300.044591,12.8442438 C299.876827,12.9706553 299.740804,13.1760708 299.636519,13.4604966 C299.532233,13.7449224 299.427949,14.1151219 299.323663,14.5711061 C299.219378,15.0270903 299.144565,15.6252785 299.099223,16.3656885 C299.053882,17.1060985 299.031211,17.972907 299.031211,18.96614 L299.031211,20.2528217 C299.031211,21.1015844 299.051615,21.8555272 299.092422,22.5146727 C299.13323,23.1738182 299.185372,23.7200881 299.24885,24.1534989 C299.312328,24.5869096 299.398476,24.9548518 299.507296,25.2573363 C299.616116,25.5598209 299.7204,25.7923242 299.820151,25.9548533 C299.919903,26.1173823 300.049125,26.2392772 300.20782,26.3205418 C300.366516,26.4018063 300.502539,26.4514672 300.615893,26.469526 C300.729247,26.4875847 300.876605,26.496614 301.057971,26.496614 C301.466045,26.496614 301.910387,26.345374 302.391008,26.0428894 C302.871629,25.7404048 303.31597,25.3453749 303.724044,24.8577878 Z M303.724044,27.6343115 L303.724044,26.1038375 C302.907895,27.3679521 301.810645,28 300.43226,28 C300.187415,28 299.965245,27.9796842 299.765742,27.9390519 C299.566239,27.8984197 299.344068,27.8126417 299.099223,27.6817156 C298.854379,27.5507894 298.636742,27.3747189 298.446308,27.1534989 C298.255873,26.9322788 298.065441,26.6252841 297.875006,26.2325056 C297.684571,25.8397272 297.528145,25.3792351 297.405723,24.8510158 C297.283301,24.3227965 297.183551,23.6659181 297.10647,22.8803612 C297.029389,22.0948042 296.990849,21.2144518 296.990849,20.2392777 L296.990849,18.9525959 C296.990849,17.5530404 297.065662,16.3498922 297.215289,15.3431151 C297.364916,14.3363381 297.548547,13.5620795 297.766187,13.020316 C297.983827,12.4785526 298.26494,12.0519203 298.609537,11.7404063 C298.954133,11.4288923 299.271519,11.2347634 299.561705,11.1580135 C299.851892,11.0812637 300.191949,11.0428894 300.581887,11.0428894 C301.153191,11.0428894 301.713151,11.2031587 302.261785,11.523702 C302.810418,11.8442454 303.297833,12.316024 303.724044,12.9390519 L303.724044,4.32505643 L305.764406,4.32505643 L305.764406,27.6343115 L303.724044,27.6343115 Z M308.172033,23.5711061 L309.736311,23.0428894 C309.863268,23.4401826 310.019694,23.8239259 310.205594,24.1941309 C310.391495,24.5643359 310.615932,24.9345354 310.878914,25.3047404 C311.141895,25.6749454 311.45248,25.9729108 311.810679,26.1986456 C312.168878,26.4243804 312.54294,26.537246 312.932878,26.537246 C313.649276,26.537246 314.186566,26.3205439 314.544764,25.8871332 C314.902963,25.4537224 315.08206,24.8668209 315.08206,24.1264108 C315.08206,23.0880309 314.152571,21.7562158 312.293565,20.1309255 L311.110155,19.1015801 C310.212391,18.3160232 309.534544,17.6139986 309.076594,16.9954853 C308.618644,16.3769721 308.389672,15.6839767 308.389672,14.9164786 C308.389672,13.6975108 308.761468,12.7516964 309.50507,12.0790068 C310.248672,11.4063172 311.241639,11.0699774 312.483999,11.0699774 C313.073439,11.0699774 313.608462,11.1828431 314.089083,11.4085779 C314.569704,11.6343126 314.973239,11.9480793 315.299698,12.3498871 C315.626158,12.751695 315.90047,13.1850993 316.122644,13.6501129 C316.344818,14.1151265 316.523915,14.6275367 316.65994,15.1873589 L314.850819,15.7426637 C314.769204,15.2370178 314.639982,14.7584673 314.46315,14.3069977 C314.286318,13.8555282 314.014272,13.4469544 313.647005,13.0812641 C313.279738,12.7155738 312.860334,12.5327314 312.388782,12.5327314 C311.781204,12.5327314 311.298323,12.7381469 310.940125,13.1489842 C310.581926,13.5598215 310.402829,14.0902902 310.402829,14.7404063 C310.402829,15.2821698 310.577392,15.7968373 310.926522,16.2844244 C311.275653,16.7720115 311.781204,17.2957083 312.443191,17.8555305 L313.735421,18.96614 C314.152563,19.3273156 314.472217,19.6094798 314.694391,19.8126411 C314.916565,20.0158024 315.197678,20.3047385 315.537741,20.6794582 C315.877803,21.0541779 316.133979,21.392775 316.306277,21.6952596 C316.478575,21.9977442 316.635001,22.3611717 316.77556,22.785553 C316.916119,23.2099344 316.990932,23.6433386 317,24.0857788 C317,25.2957171 316.616869,26.2505608 315.850596,26.9503386 C315.084323,27.6501164 314.084555,28 312.851264,28 C311.654245,28 310.654478,27.582397 309.851932,26.7471783 C309.049385,25.9119597 308.489425,24.8532795 308.172033,23.5711061 Z" id="InteractiveClientDashboards" fill="#5F6063" fill-rule="nonzero"></path>
        </g>
    </g>
</svg>