<?xml version="1.0" encoding="UTF-8"?>
<svg width="732px" height="156px" viewBox="0 0 732 156" version="1.1" xmlns="http://www.w3.org/2000/svg" xmlns:xlink="http://www.w3.org/1999/xlink">
    <!-- Generator: Sketch 54.1 (76490) - https://sketchapp.com -->
    <title>UC_ID_SecondaryBlackRed</title>
    <desc>Created with Sketch.</desc>
    <defs>
        <polygon id="path-1" points="0 0.263 114.975 0.263 114.975 154.94 0 154.94"></polygon>
    </defs>
    <g id="UC_ID_SecondaryBlackRed" stroke="none" stroke-width="1" fill="none" fill-rule="evenodd">
        <path d="M219.807,2.9 L220.058,1.144 L226.482,1.295 L232.353,1.144 L232.604,2.9 L228.339,3.553 L228.339,24.029 C228.339,30.553 225.679,34.919 215.692,37.228 C205.805,37.228 202.292,31.908 202.292,23.928 L202.292,3.553 L197.775,2.9 L198.026,1.144 L204.951,1.295 L211.827,1.144 L212.078,2.9 L207.812,3.553 L207.812,24.681 C207.812,30.904 210.472,34.467 216.193,34.467 C221.413,34.467 224.324,30.954 224.324,24.53 L224.324,3.553 L219.807,2.9" id="Fill-1" fill="#1A1919"></path>
        <path d="M240.114,36.224 L234.343,36.375 L234.092,34.618 L237.605,34.116 L237.605,15.798 L234.092,16.099 L233.841,14.343 L239.863,12.787 L242.021,12.636 L242.272,16.852 L249.7,11.984 C256.123,11.984 257.178,14.142 257.178,20.164 L257.178,34.116 L260.992,34.618 L260.741,36.375 L254.969,36.224 L250.151,36.375 L249.9,34.618 L252.41,34.116 L252.41,19.763 C252.41,17.153 251.256,15.999 249.097,15.999 C247.341,15.999 245.584,17.103 243.878,18.257 L242.372,19.261 L242.372,34.116 L245.133,34.618 L244.882,36.375 L240.114,36.224" id="Fill-2" fill="#1A1919"></path>
        <path d="M268.075,1.696 L271.688,1.445 L273.093,1.696 L273.344,4.506 L272.792,6.915 L269.229,7.216 L267.874,6.915 L267.573,4.105 L268.075,1.696 Z M270.584,36.224 L264.812,36.375 L264.561,34.618 L268.075,34.116 L268.075,15.798 L264.561,16.099 L264.31,14.343 L270.333,12.787 L272.842,12.586 L272.842,34.116 L276.606,34.618 L276.355,36.375 L270.584,36.224 L270.584,36.224 Z" id="Fill-3" fill="#1A1919"></path>
        <polyline id="Fill-4" fill="#1A1919" points="291.567 33.112 297.64 14.945 295.331 14.443 295.582 12.687 299.999 12.837 304.164 12.687 304.415 14.443 301.203 14.945 292.972 35.571 289.309 37.077 280.576 14.945 277.465 14.443 277.716 12.687 283.488 12.837 288.757 12.687 289.008 14.443 285.696 14.945 291.166 29.649 291.567 33.112"></polyline>
        <path d="M320.632,21.018 C320.632,17.153 319.879,14.493 316.014,14.493 C312.953,14.493 310.996,17.354 310.595,21.52 L320.632,21.018 Z M310.544,23.527 C310.544,29.248 313.606,33.313 318.875,33.313 C320.883,33.313 323.291,32.359 325.148,31.205 L325.951,33.112 C323.542,34.769 320.381,36.174 317.169,37.077 C311.096,37.077 305.626,32.761 305.626,24.882 C305.626,17.454 310.093,13.49 316.968,11.984 C323.593,11.984 325.851,16.15 325.851,21.419 L325.851,23.527 L310.544,23.527 L310.544,23.527 Z" id="Fill-5" fill="#1A1919"></path>
        <path d="M337.369,19.261 L343.091,12.235 L347.106,12.235 L347.106,17.254 L343.392,17.254 C342.187,17.505 339.979,19.161 338.624,20.817 L337.62,22.021 L337.62,33.965 L342.89,34.467 L342.639,36.375 L335.362,36.224 L329.741,36.375 L329.49,34.618 L333.003,34.116 L333.003,15.798 L329.49,16.099 L329.239,14.343 L335.262,12.787 L337.269,12.636 L337.369,19.261" id="Fill-6" fill="#1A1919"></path>
        <path d="M363.341,15.548 C362.84,15.246 361.334,14.443 359.527,14.443 C357.57,14.443 355.713,15.497 355.713,17.404 C355.713,19.01 356.968,20.014 359.226,21.168 L363.09,23.126 C366.453,24.832 367.808,26.739 367.808,29.599 C367.808,34.116 364.144,35.822 358.373,37.077 C355.311,37.077 352.05,35.571 350.744,34.819 L349.791,29.148 L353.003,29.148 L354.709,33.313 C355.763,34.016 357.219,34.568 358.825,34.568 C361.484,34.568 362.84,32.861 362.84,30.754 C362.84,28.796 361.785,27.943 359.176,26.588 L355.211,24.53 C353.053,23.426 350.995,21.52 350.995,18.709 C350.995,15.196 354.258,13.239 360.079,11.984 C362.789,11.984 365.7,13.189 367.156,14.242 L367.156,19.261 L364.495,19.261 L363.341,15.548" id="Fill-7" fill="#1A1919"></path>
        <path d="M375.096,1.696 L378.709,1.445 L380.115,1.696 L380.366,4.506 L379.813,6.915 L376.25,7.216 L374.895,6.915 L374.594,4.105 L375.096,1.696 Z M377.605,36.224 L371.834,36.375 L371.583,34.618 L375.096,34.116 L375.096,15.798 L371.583,16.099 L371.332,14.343 L377.354,12.787 L379.864,12.586 L379.864,34.116 L383.628,34.618 L383.377,36.375 L377.605,36.224 L377.605,36.224 Z" id="Fill-8" fill="#1A1919"></path>
        <path d="M384.487,15.597 L384.487,14.744 L386.243,12.988 L389.505,12.988 L389.505,9.726 L392.767,6.463 L394.072,6.463 L394.072,13.339 L401.65,13.339 L401.65,15.597 L394.122,15.597 L394.122,30.302 C394.122,31.757 394.675,33.313 396.782,33.313 C398.238,33.313 399.342,32.811 400.747,32.109 L401.6,33.815 L395.728,37.077 C390.107,37.077 389.355,35.069 389.355,30.553 L389.355,15.597 L384.487,15.597" id="Fill-9" fill="#1A1919"></path>
        <polyline id="Fill-10" fill="#1A1919" points="408.246 48.118 408.246 43.099 412.561 43.099 417.53 35.521 415.522 36.124 407.343 14.945 404.231 14.443 404.482 12.687 410.253 12.837 415.522 12.687 415.773 14.443 412.462 14.945 417.781 29.649 418.182 33.112 424.155 14.945 421.846 14.443 422.097 12.687 426.513 12.837 430.678 12.687 430.929 14.443 427.717 14.945 419.839 35.471 414.218 48.118 408.246 48.118"></polyline>
        <path d="M458.936,34.618 C462.951,34.618 465.008,30.503 465.008,25.083 C465.008,18.709 461.947,14.443 457.58,14.443 C453.515,14.443 451.508,18.558 451.508,24.029 C451.508,29.75 454.469,34.618 458.936,34.618 Z M470.027,24.029 C470.027,31.507 465.459,35.822 457.681,37.077 C451.006,37.077 446.49,31.908 446.49,25.083 C446.49,17.555 451.056,13.289 458.835,11.984 C465.51,11.984 470.027,17.203 470.027,24.029 L470.027,24.029 Z" id="Fill-11" fill="#1A1919"></path>
        <path d="M481.691,13.239 L487.964,13.239 L487.964,15.597 L481.691,15.597 L481.691,34.116 L487.462,34.467 L487.211,36.375 L479.433,36.224 L473.661,36.375 L473.41,34.618 L476.923,34.116 L476.923,15.597 L472.507,15.597 L472.507,14.744 L474.012,12.988 L476.923,12.988 L476.923,12.486 C476.923,9.475 477.877,7.518 479.684,5.46 L483.899,0.692 L490.223,0.692 L490.223,4.707 L483.699,4.707 L482.744,6.062 C482.042,7.016 481.691,8.471 481.691,11.733 L481.691,13.239" id="Fill-12" fill="#1A1919"></path>
        <path d="M197.982,96.258 C197.982,74.478 213.239,59.623 235.521,59.623 C244.956,59.623 252.986,62.132 260.213,67.452 L254.693,75.281 C248.77,71.065 242.246,68.857 235.221,68.857 C219.06,68.857 207.819,79.998 207.819,96.258 C207.819,112.519 219.06,123.66 235.221,123.66 C242.246,123.66 248.77,121.452 254.693,117.236 L260.213,125.066 C252.986,130.385 244.956,132.894 235.521,132.894 C213.239,132.894 197.982,118.039 197.982,96.258" id="Fill-13" fill="#1A1919"></path>
        <polygon id="Fill-14" fill="#1A1919" points="270.153 131.389 279.187 131.389 279.187 61.128 270.153 61.128"></polygon>
        <path d="M338.819,105.593 C341.227,108.002 343.436,111.214 344.339,113.422 L344.741,113.322 C344.138,110.612 343.737,106.497 343.737,100.675 L343.737,61.128 L352.77,61.128 L352.77,132.393 L351.968,132.393 L309.108,86.924 C306.8,84.515 304.592,81.303 303.588,79.095 L303.287,79.195 C303.889,81.905 304.19,86.021 304.19,91.742 L304.19,131.389 L295.157,131.389 L295.157,60.125 L296.06,60.125 L338.819,105.593" id="Fill-15" fill="#1A1919"></path>
        <path d="M364.939,96.258 C364.939,74.478 380.195,59.623 402.478,59.623 C411.913,59.623 419.943,62.132 427.169,67.452 L421.649,75.281 C415.727,71.065 409.203,68.857 402.177,68.857 C386.017,68.857 374.775,79.998 374.775,96.258 C374.775,112.519 386.017,123.66 402.177,123.66 C409.203,123.66 415.727,121.452 421.649,117.236 L427.169,125.066 C419.943,130.385 411.913,132.894 402.478,132.894 C380.195,132.894 364.939,118.039 364.939,96.258" id="Fill-16" fill="#1A1919"></path>
        <polygon id="Fill-17" fill="#1A1919" points="437.11 131.389 446.143 131.389 446.143 61.128 437.11 61.128"></polygon>
        <path d="M505.775,105.593 C508.184,108.002 510.392,111.214 511.295,113.422 L511.697,113.322 C511.094,110.612 510.693,106.497 510.693,100.675 L510.693,61.128 L519.727,61.128 L519.727,132.393 L518.923,132.393 L476.065,86.924 C473.756,84.515 471.548,81.303 470.544,79.095 L470.242,79.195 C470.845,81.905 471.146,86.021 471.146,91.742 L471.146,131.389 L462.113,131.389 L462.113,60.125 L463.016,60.125 L505.775,105.593" id="Fill-18" fill="#1A1919"></path>
        <path d="M579.572,105.593 C581.981,108.002 584.189,111.214 585.092,113.422 L585.493,113.322 C584.891,110.612 584.49,106.497 584.49,100.675 L584.49,61.128 L593.524,61.128 L593.524,132.393 L592.72,132.393 L549.862,86.924 C547.553,84.515 545.345,81.303 544.341,79.095 L544.039,79.195 C544.642,81.905 544.943,86.021 544.943,91.742 L544.943,131.389 L535.909,131.389 L535.909,60.125 L536.813,60.125 L579.572,105.593" id="Fill-19" fill="#1A1919"></path>
        <path d="M629.401,103.987 L642.047,103.987 C645.159,103.987 646.765,104.088 647.668,104.188 L647.769,104.088 C646.965,103.084 645.962,101.478 644.657,98.366 L638.434,83.712 C637.029,80.099 636.125,77.288 635.925,75.482 L635.523,75.482 C635.323,77.288 634.419,80.099 633.014,83.712 L626.79,98.366 C625.486,101.478 624.482,103.084 623.679,104.088 L623.78,104.188 C624.683,104.088 626.289,103.987 629.401,103.987 Z M635.222,59.623 L636.226,59.623 L669.047,131.389 L658.909,131.389 L650.177,111.716 L621.27,111.716 L612.537,131.389 L602.401,131.389 L635.222,59.623 L635.222,59.623 Z" id="Fill-20" fill="#1A1919"></path>
        <path d="M713.424,69.76 L695.457,69.76 C694.253,69.76 693.55,69.76 692.848,69.459 L692.747,69.66 C692.949,70.162 693.049,70.964 693.049,72.069 L693.049,131.389 L684.015,131.389 L684.015,72.069 C684.015,70.964 684.116,70.162 684.317,69.66 L684.116,69.459 C683.412,69.76 682.811,69.76 681.606,69.76 L663.539,69.76 L663.539,61.128 L713.424,61.128 L713.424,69.76" id="Fill-21" fill="#1A1919"></path>
        <polygon id="Fill-22" fill="#1A1919" points="722.15 131.389 731.183 131.389 731.183 61.128 722.15 61.128"></polygon>
        <g id="Group-26" transform="translate(0.000000, 1.000000)">
            <mask id="mask-2" fill="white">
                <use xlink:href="#path-1"></use>
            </mask>
            <g id="Clip-24"></g>
            <polygon id="Fill-23" fill="#BA2530" mask="url(#mask-2)" points="85.387 8.933 114.95 8.933 114.95 0.307 85.387 0.307"></polygon>
            <path d="M63.546,84.077 C63.546,60.536 77.308,41.501 97.636,30.831 L97.636,19.263 C68.42,28.83 47.47,53.53 47.47,84.077 C47.47,99.182 51.407,110.986 58.271,121.556 C40.204,118.381 32.42,105.778 32.42,84.077 L32.42,0.263 L0,0.263 L0,8.891 L15.494,8.891 L15.494,84.077 C15.494,114.2 35.13,129.846 65.018,130.34 C76.448,143.046 92.622,151.915 110.998,154.534 C112.449,154.75 113.829,154.899 114.975,155 L114.975,146.431 C113.498,146.176 112.472,145.935 112.472,145.935 C84.312,138.768 63.546,114.801 63.546,84.077" id="Fill-25" fill="#BA2530" mask="url(#mask-2)"></path>
        </g>
        <path d="M131.897,85.078 L131.897,24.423 C151.892,24.423 163.883,36.317 164.529,49.946 L171.966,51.409 L177.176,21.066 L168.323,19.343 L167.241,25.818 C151.27,17.785 137.868,16.33 124.554,16.33 C121.289,16.33 118.075,16.523 114.913,16.901 L114.976,85.078 C114.976,98.339 113.061,106.163 106.274,114.508 C98.807,106.269 97.627,96.913 97.627,85.078 C97.627,78.773 97.638,48.774 97.638,48.774 C87.729,58.357 81.532,70.266 81.532,85.078 C81.532,116.067 105.462,140.266 134.664,140.266 C144.687,140.266 156.247,137.816 164.682,132.08 L162.555,128.902 C151.169,134.712 128.057,136.065 113.936,122.848 C125.875,114.037 131.897,102.761 131.897,85.078" id="Fill-27" fill="#BA2530"></path>
    </g>
</svg>