<svg xmlns="http://www.w3.org/2000/svg" xmlns:xlink="http://www.w3.org/1999/xlink" viewBox="0 0 84.254 84.254">
  <defs>
    <style>
      .cls-1 {
        fill: #fff;
      }

      .cls-2 {
        fill: url(#linear-gradient);
      }
    </style>
    <linearGradient id="linear-gradient" y1="0.5" x2="1" y2="0.5" gradientUnits="objectBoundingBox">
      <stop offset="0" stop-color="#e4a130" stop-opacity="0.502"/>
      <stop offset="1" stop-color="#e4a130"/>
    </linearGradient>
  </defs>
  <g id="Anthem_on_the_go" transform="translate(-732.339 -739.247)">
    <circle id="Ellipse_38" data-name="Ellipse 38" class="cls-1" cx="42.127" cy="42.127" r="42.127" transform="translate(732.339 739.247)"/>
    <path id="Path_48" data-name="Path 48" class="cls-2" d="M1087.287,630.5a1.648,1.648,0,0,1-.351.534l-6.572,6.488a1.643,1.643,0,0,1-2.317-2.317l3.763-3.763h-17.342v17.342l3.763-3.763a1.643,1.643,0,0,1,2.3,2.331l-6.558,6.558a1.643,1.643,0,0,1-2.317,0l-6.572-6.558a1.643,1.643,0,0,1,2.317-2.317l3.763,3.763V631.5h-17.314l3.763,3.763a1.643,1.643,0,1,1-2.359,2.261l-6.558-6.558a1.643,1.643,0,0,1,0-2.317l6.558-6.558a1.643,1.643,0,1,1,2.317,2.317l-3.763,3.763h17.342V610.841l-3.763,3.763a1.643,1.643,0,0,1-2.317-2.317l6.558-6.558a1.643,1.643,0,0,1,2.317,0l6.558,6.558a1.643,1.643,0,1,1-2.317,2.317l-3.763-3.763v17.342h17.343L1078,624.42a1.643,1.643,0,1,1,2.317-2.317l6.558,6.558a1.643,1.643,0,0,1,.351,1.783Zm-24.448-39.951a39.319,39.319,0,1,0,39.319,39.319,39.319,39.319,0,0,0-39.319-39.319Z" transform="translate(-288.373 151.52)"/>
  </g>
</svg>
