<svg xmlns="http://www.w3.org/2000/svg" xmlns:xlink="http://www.w3.org/1999/xlink" viewBox="0 0 86 87.092">
  <defs>
    <style>
      .cls-1 {
        fill: #fff;
      }

      .cls-2 {
        fill: url(#linear-gradient);
      }
    </style>
    <linearGradient id="linear-gradient" x1="0.103" y1="0.196" x2="0.897" y2="0.804" gradientUnits="objectBoundingBox">
      <stop offset="0" stop-color="#1879bf" stop-opacity="0.502"/>
      <stop offset="1" stop-color="#1879bf"/>
    </linearGradient>
  </defs>
  <g id="Executive" transform="translate(-38 -8.08)">
    <ellipse id="Ellipse_42" data-name="Ellipse 42" class="cls-1" cx="43" cy="43.546" rx="43" ry="43.546" transform="translate(38 8.08)"/>
    <path id="Path_50" data-name="Path 50" class="cls-2" d="M78.427,54.046l12.209-9.463L81.153,56.81a1.916,1.916,0,0,1-1.3.514h0a1.929,1.929,0,0,1-1.766-1.168,1.976,1.976,0,0,1,.342-2.109Zm42.154-3.595c.013,22.8-18.216,41.292-40.714,41.3S39.124,73.284,39.12,50.484,57.361,9.2,79.858,9.2s40.718,18.475,40.722,41.268Zm-15.274,5.16a25.857,25.857,0,0,0-6.032-16.628l2.268-2.934a1.746,1.746,0,0,0,0-2.445,1.69,1.69,0,0,0-2.413,0l-2.944,2.3a25.165,25.165,0,0,0-27.109-3.657A25.8,25.8,0,0,0,54.37,55.611a1.7,1.7,0,1,0,3.4,0A22.354,22.354,0,0,1,70.181,35.488a21.793,21.793,0,0,1,23.278,2.566l-17.2,13.327-.169.147a5.456,5.456,0,0,0-1.2,5.921A5.332,5.332,0,0,0,79.85,60.8h0a5.273,5.273,0,0,0,3.764-1.565l.145-.147L97.127,41.8a22.414,22.414,0,0,1,4.826,13.865,1.7,1.7,0,1,0,3.4,0Z" transform="translate(1.15 1.15)"/>
  </g>
</svg>
