<?xml version="1.0" encoding="UTF-8"?>
<svg viewBox="0 0 60 61" version="1.1" xmlns="http://www.w3.org/2000/svg" xmlns:xlink="http://www.w3.org/1999/xlink">
    <!-- Generator: Sketch 51.2 (57519) - http://www.bohemiancoding.com/sketch -->
    <title>Financial</title>
    <desc>Created with Sketch.</desc>
    <defs>
        <linearGradient x1="8.73214286%" y1="21.75%" x2="91.25%" y2="78.25%" id="linearGradient-1">
            <stop stop-color="#1879BF" stop-opacity="0.5" offset="0%"></stop>
            <stop stop-color="#1879BF" offset="100%"></stop>
        </linearGradient>
    </defs>
    <g id="Page-2" stroke="none" stroke-width="1" fill="none" fill-rule="evenodd">
        <g id="Financial" transform="translate(-1.000000, 0.000000)" fill-rule="nonzero">
            <circle id="Oval" fill="#FFFFFF" cx="30.99" cy="30.03" r="30"></circle>
            <circle id="Oval" fill="url(#linearGradient-1)" cx="30.99" cy="30.03" r="28"></circle>
            <path d="M20.56,14.15 C20.56,16.2265907 22.2434093,17.91 24.32,17.91 C26.3965907,17.91 28.08,16.2265907 28.08,14.15 C28.08,12.0734093 26.3965907,10.39 24.32,10.39 C23.322786,10.39 22.3664153,10.7861417 21.6612785,11.4912785 C20.9561417,12.1964153 20.56,13.152786 20.56,14.15 Z M36.84,24.15 C30.6157509,24.15 25.57,29.1957509 25.57,35.42 C25.57,41.6442491 30.6157509,46.69 36.84,46.69 C43.0642491,46.69 48.11,41.6442491 48.11,35.42 C48.0989775,29.2074645 43.0625428,24.1755027 36.85,24.17 L36.84,24.15 Z M36.84,44.15 C32.0295998,44.15 28.13,40.2504002 28.13,35.44 C28.13,30.6295998 32.0295998,26.73 36.84,26.73 C41.6504002,26.73 45.55,30.6295998 45.55,35.44 C45.5500032,40.2464976 41.6564945,44.1444816 36.85,44.15 L36.84,44.15 Z M40.6,37.7 C40.6,36.1 39.69,35.18 37.6,34.43 C36.24,33.9 35.68,33.43 35.68,32.88 C35.68,32.33 36.4,31.88 37.23,31.88 C38.0670372,31.9931881 38.861758,32.316581 39.54,32.82 C39.5968693,32.8565436 39.6624573,32.8772556 39.73,32.88 L39.85,32.88 C39.9528722,32.8437775 40.0337775,32.7628722 40.07,32.66 L40.53,31.1 C40.5766051,30.9480751 40.5150093,30.7838195 40.38,30.7 C39.6594024,30.2928237 38.8630332,30.0375772 38.04,29.95 L38.04,28.42 C38.0426818,28.3006442 37.9978246,28.1851145 37.9153024,28.0988412 C37.8327801,28.0125679 37.7193571,27.9626229 37.6,27.96 L35.98,27.96 C35.8606429,27.9626229 35.7472199,28.0125679 35.6646976,28.0988412 C35.5821754,28.1851145 35.5373182,28.3006442 35.54,28.42 L35.54,30.06 C34.0965848,30.3971057 33.0641303,31.6681353 33.03,33.15 C33.03,34.58 34.03,35.54 36.03,36.25 C37.45,36.77 37.92,37.25 37.92,37.9 C37.92,38.55 37.24,38.9 36.32,38.9 C35.4948252,38.845882 34.6951863,38.5919195 33.99,38.16 C33.9352645,38.1282112 33.8732891,38.1109957 33.81,38.11 L33.68,38.11 C33.5792744,38.1461921 33.5014706,38.2277009 33.47,38.33 L33.02,39.94 C32.969985,40.0972971 33.0366623,40.2681576 33.18,40.35 C33.8749957,40.7919755 34.6867509,41.0149469 35.51,40.99 L35.51,42.39 C35.51,42.77 35.71,42.97 35.95,42.97 L37.57,42.97 C37.6893571,42.9673771 37.8027801,42.9174321 37.8853024,42.8311588 C37.9678246,42.7448855 38.0126818,42.6293558 38.01,42.51 L38.01,40.91 C39.5607476,40.6487251 40.6724222,39.2709353 40.6,37.7 Z M28.99,45.5 C28.6008941,46.2458403 27.831225,46.7153385 26.99,46.72 L22.85,46.72 C22.2106369,46.6940217 21.6078524,46.4148398 21.174529,45.9439992 C20.7412055,45.4731586 20.512921,44.8493175 20.54,44.21 L20.54,34.21 L19.85,34.21 C18.1931458,34.21 16.85,32.8668542 16.85,31.21 C16.85,31.21 16.85,24.41 16.85,23.07 C16.7429503,22.1021353 17.0314451,21.1320715 17.65,20.38 C18.2270373,19.659985 19.0973221,19.2376949 20.02,19.23 L20.56,19.23 L22.56,23.23 L23.63,21.66 C23.2060279,21.2332079 22.9966887,20.6382437 23.06,20.04 C23.06,19.34 23.64,19.22 24.34,19.22 C25.04,19.22 25.57,19.34 25.57,20.04 C25.6281309,20.641398 25.4112719,21.2368413 24.98,21.66 L26.07,23.23 L28.07,19.23 L38.72,19.23 C39.7582953,19.23 40.6,20.0717047 40.6,21.11 C40.6,22.1482953 39.7582953,22.99 38.72,22.99 L29.33,22.99 L29.33,25.45 C26.018651,27.7297276 24.049362,31.4998304 24.07,35.52 C24.0953244,39.4245312 25.9083586,43.1021901 28.99,45.5 Z" id="Shape" fill="#FFFFFF"></path>
        </g>
    </g>
</svg>