<svg xmlns="http://www.w3.org/2000/svg" xmlns:xlink="http://www.w3.org/1999/xlink" viewBox="0 0 84.254 84.254">
  <defs>
    <style>
      .cls-1 {
        fill: #fff;
      }

      .cls-2 {
        fill: url(#linear-gradient);
      }
    </style>
    <linearGradient id="linear-gradient" x1="0.201" y1="0.138" x2="0.837" y2="0.868" gradientUnits="objectBoundingBox">
      <stop offset="0" stop-color="#a81882" stop-opacity="0.502"/>
      <stop offset="1" stop-color="#a81882"/>
    </linearGradient>
  </defs>
  <g id="MedRx" transform="translate(-1062.672 -416.722)">
    <circle id="Ellipse_30" data-name="Ellipse 30" class="cls-1" cx="42.127" cy="42.127" r="42.127" transform="translate(1062.672 416.722)"/>
    <path id="Path_45" data-name="Path 45" class="cls-2" d="M1293.459,408.393a5.462,5.462,0,1,0-.379,4.213,5.463,5.463,0,0,0,.379-4.213Zm5.013,1.4.52.421-.562.435a3.792,3.792,0,0,0-1.755,5.154,3.462,3.462,0,0,0,.183.674h-.688a4.986,4.986,0,0,0-2.907.632,4.775,4.775,0,0,0-1.531,2.443c-.07.211-.182.435-.281.66-.211-.126-.463-.435-.646-.562-.758-.548-1.629-1.4-2.668-1.4h0a5.35,5.35,0,0,0-2.738,1.4c-.169.112-.379.505-.576.618-.084-.211-.169-.477-.239-.66a3.791,3.791,0,0,0-4.353-3.258h-.716a2.607,2.607,0,0,1,.182-.646,3.89,3.89,0,0,0-1.643-5.308l-.52-.421.562-.435a3.792,3.792,0,0,0,1.755-5.154,3.462,3.462,0,0,0-.183-.674h.688a4.986,4.986,0,0,0,2.907-.632,4.774,4.774,0,0,0,1.53-2.443c.071-.211.183-.435.281-.66.211.126.463.435.646.562.758.548,1.629,1.4,2.668,1.4h0a5.364,5.364,0,0,0,2.724-1.4c.169-.112.379-.505.576-.618.084.211.169.477.239.66a3.792,3.792,0,0,0,4.353,3.258H1297a2.6,2.6,0,0,1-.183.646,3.89,3.89,0,0,0,1.643,5.308Zm-9.212-1.671a2.162,2.162,0,0,0-1.011-.253,2.2,2.2,0,0,0-.646.1,2.177,2.177,0,1,0,1.657.154Zm34.53-19.168a3.974,3.974,0,0,0-1.994-3.033,7,7,0,0,1-.814-.716,7.062,7.062,0,0,1,.267-1.053,3.975,3.975,0,0,0,0-3.623,4.1,4.1,0,0,0-3.469-1.306,7.855,7.855,0,0,1-1.011-.084,7.752,7.752,0,0,1-.365-.955,3.272,3.272,0,0,0-5.743-1.966,7.717,7.717,0,0,1-.885.534,7.834,7.834,0,0,1-.828-.534,3.328,3.328,0,0,0-5.9,1.826,7.843,7.843,0,0,1-.379.913,7.4,7.4,0,0,1-1.039,0,3.272,3.272,0,0,0-3.623,4.873,7.616,7.616,0,0,1,.239,1,7.616,7.616,0,0,1-.786.632,4.1,4.1,0,0,0-2.12,3.033,3.974,3.974,0,0,0,1.994,3.033l.814.632a5.35,5.35,0,0,1-.267,1.123,3.974,3.974,0,0,0,0,3.623,4.1,4.1,0,0,0,3.468,1.306,7.851,7.851,0,0,1,1.011.084,7.734,7.734,0,0,1,.365.955,3.272,3.272,0,0,0,5.743,1.966,7.708,7.708,0,0,1,.885-.534,7.813,7.813,0,0,1,.828.534,5.055,5.055,0,0,0,2.808,1.208,2.584,2.584,0,0,0,.772-.112,4.128,4.128,0,0,0,2.331-2.921,7.885,7.885,0,0,1,.379-.913,7.4,7.4,0,0,1,1.039,0,3.272,3.272,0,0,0,3.623-4.873,7.612,7.612,0,0,1-.239-1,7.6,7.6,0,0,1,.786-.632,4.1,4.1,0,0,0,2.121-3.033ZM1302.5,410.2a3.974,3.974,0,0,0-1.994-3.033,7.02,7.02,0,0,1-.814-.716,7.066,7.066,0,0,1,.267-1.053,3.975,3.975,0,0,0,0-3.623,4.1,4.1,0,0,0-3.469-1.306,7.851,7.851,0,0,1-1.011-.084,7.773,7.773,0,0,1-.365-.955,3.272,3.272,0,0,0-5.743-1.966,7.72,7.72,0,0,1-.885.534,7.846,7.846,0,0,1-.828-.534,3.328,3.328,0,0,0-5.9,1.825,7.832,7.832,0,0,1-.379.913,7.4,7.4,0,0,1-1.039,0,3.272,3.272,0,0,0-3.623,4.873,7.593,7.593,0,0,1,.239,1,7.592,7.592,0,0,1-.787.632,4.1,4.1,0,0,0-2.12,3.033,3.974,3.974,0,0,0,1.994,3.033l.814.632a5.366,5.366,0,0,1-.267,1.123,3.974,3.974,0,0,0,0,3.623,4.1,4.1,0,0,0,3.468,1.306,7.853,7.853,0,0,1,1.011.084,7.755,7.755,0,0,1,.365.955,3.272,3.272,0,0,0,5.743,1.966,7.693,7.693,0,0,1,.884-.534,7.837,7.837,0,0,1,.828.534,5.055,5.055,0,0,0,2.809,1.208,2.587,2.587,0,0,0,.772-.112,4.128,4.128,0,0,0,2.331-2.921,7.878,7.878,0,0,1,.379-.913,7.4,7.4,0,0,1,1.039,0,3.272,3.272,0,0,0,3.623-4.873,7.631,7.631,0,0,1-.239-1,7.587,7.587,0,0,1,.786-.632,4.1,4.1,0,0,0,2.12-3.033Zm34.9-10.026a39.319,39.319,0,1,1-39.319-39.319A39.319,39.319,0,0,1,1337.4,400.179Zm-22.636-13.088a5.462,5.462,0,1,0-.379,4.213,5.463,5.463,0,0,0,.379-4.213Zm5.013,1.4.52.421-.562.435a3.792,3.792,0,0,0-1.755,5.154,3.464,3.464,0,0,0,.183.674h-.688a4.985,4.985,0,0,0-2.907.632,4.775,4.775,0,0,0-1.531,2.443c-.07.211-.183.435-.281.66-.211-.126-.463-.435-.646-.562-.758-.548-1.629-1.4-2.668-1.4h0a5.364,5.364,0,0,0-2.724,1.4c-.169.112-.379.505-.576.618-.084-.211-.169-.477-.239-.66a3.792,3.792,0,0,0-4.353-3.258h-.716a2.6,2.6,0,0,1,.183-.646,3.89,3.89,0,0,0-1.643-5.308l-.52-.421.562-.435a3.792,3.792,0,0,0,1.755-5.154,3.462,3.462,0,0,0-.183-.674h.688a4.986,4.986,0,0,0,2.907-.632,4.775,4.775,0,0,0,1.53-2.443c.07-.211.183-.435.281-.66.211.126.463.435.646.562.758.548,1.629,1.4,2.668,1.4h0a5.35,5.35,0,0,0,2.738-1.4c.168-.112.379-.505.576-.618.084.211.169.477.239.66a3.791,3.791,0,0,0,4.353,3.258h.716a2.606,2.606,0,0,1-.182.646,3.89,3.89,0,0,0,1.643,5.308Zm-8.145-.379a1.357,1.357,0,1,0-.014.042Z" transform="translate(-193.28 58.67)"/>
  </g>
</svg>
