<svg xmlns="http://www.w3.org/2000/svg" xmlns:xlink="http://www.w3.org/1999/xlink" viewBox="0 0 84.254 84.254">
  <defs>
    <style>
      .cls-1 {
        fill: #fff;
      }

      .cls-2 {
        fill: url(#linear-gradient);
      }
    </style>
    <linearGradient id="linear-gradient" x1="0.146" y1="0.258" x2="0.971" y2="0.823" gradientUnits="objectBoundingBox">
      <stop offset="0" stop-color="#1879bf" stop-opacity="0.502"/>
      <stop offset="1" stop-color="#1879bf"/>
    </linearGradient>
  </defs>
  <g id="population" transform="translate(-567.172 -88.579)">
    <circle id="Ellipse_22" data-name="Ellipse 22" class="cls-1" cx="42.127" cy="42.127" r="42.127" transform="translate(567.172 88.579)"/>
    <circle id="Ellipse_23" data-name="Ellipse 23" class="cls-2" cx="39.319" cy="39.319" r="39.319" transform="translate(569.981 91.388)"/>
    <circle id="Ellipse_24" data-name="Ellipse 24" class="cls-1" cx="2.949" cy="2.949" r="2.949" transform="translate(614.663 106.189)"/>
    <path id="Path_31" data-name="Path 31" class="cls-1" d="M953.825,158.942l1.4,3.918a1.278,1.278,0,0,0,1.18.871,1.208,1.208,0,0,0,.407-.07,1.306,1.306,0,0,0,.758-1.643l-1.025-3.075-1.671-5.041a5.013,5.013,0,0,0-4.887-3.581H948.18a5.617,5.617,0,0,0-1.039.112,4.9,4.9,0,0,0-3.089,1.98c-.084.112-.154.253-.239.379a5.335,5.335,0,0,0-.52,1.123l-1.671,5.041-1.011,3.075a1.306,1.306,0,0,0,.744,1.643,1.221,1.221,0,0,0,.407.07,1.278,1.278,0,0,0,1.194-.871l.548-1.559.829-2.359,1.109-3.145.632,2.808-.112.295c-.857,2.359-2.008,6.305-2.71,8.748l-.505,1.811-.1.337h3.131l1.053,8.355-.323.421v.983h2.373v-9.759h.337v9.759h2.373v-.983l-.323-.421,1.053-8.355h3.146s-2.022-7.3-3.314-10.9l-.112-.295.632-2.808Z" transform="translate(-321.918 -26.438)"/>
    <path id="Path_32" data-name="Path 32" class="cls-1" d="M940.4,169l.253-6.895v-7.288h.295l.407,4.76.449,5.35a1.32,1.32,0,0,0,1.292,1.25,1.236,1.236,0,0,0,1.138-.786,1.279,1.279,0,0,0,.084-.463v-1.306l-.225-4.044-.337-6.151a4.577,4.577,0,0,0-3.412-4.325l-.562-.126a7.847,7.847,0,0,0-1.643-.183H934.4a8.584,8.584,0,0,0-1.643.169l-.562.126a4.48,4.48,0,0,0-3.412,4.339l-.337,6.151-.225,4.044-.07,1.306a1.264,1.264,0,0,0,1.236,1.25,1.32,1.32,0,0,0,1.292-1.25l.464-5.35.407-4.76h.295V162.1L932.1,169v1.137l.323,8.566-.674.463v1.067h4.114l.169-15.152h.337l.168,15.152h4.114v-1.067l-.674-.463.323-8.566Z" transform="translate(-326.925 -27.057)"/>
    <path id="Path_33" data-name="Path 33" class="cls-1" d="M945.417,150.769a3.005,3.005,0,1,0-1-2.247A3,3,0,0,0,945.417,150.769Z" transform="translate(-320.348 -28.375)"/>
    <circle id="Ellipse_25" data-name="Ellipse 25" class="cls-1" cx="2.949" cy="2.949" r="2.949" transform="translate(598.023 106.189)"/>
    <path id="Path_34" data-name="Path 34" class="cls-1" d="M938.012,147.41a4.93,4.93,0,0,1-.59,2.331,6.53,6.53,0,0,1,4.985,6.108l.155,2.808.7-2.106a7.02,7.02,0,0,1,3.426-4.114,4.9,4.9,0,0,1,1.559-6.811,4.943,4.943,0,0,0-5.1-3.089h-3.595a6.235,6.235,0,0,0-3.567.955,4.943,4.943,0,0,1,2.022,3.918Z" transform="translate(-323.756 -29.595)"/>
    <path id="Path_35" data-name="Path 35" class="cls-1" d="M915.965,163.665a1.221,1.221,0,0,0,.407.07,1.278,1.278,0,0,0,1.194-.871l1.4-3.918,1.109-3.145.632,2.808-.112.295c-1.292,3.595-3.314,10.9-3.314,10.9h3.146l1.053,8.355-.323.421v.983h2.373V169.8h.337v9.759H926.2v-.983l-.323-.421,1.053-8.355h3.131l-.084-.337c-.1-.365-.281-1.011-.506-1.811-.7-2.443-1.854-6.389-2.71-8.748l-.112-.295.632-2.808,1.109,3.145.828,2.359.548,1.559a1.278,1.278,0,0,0,1.194.871,1.222,1.222,0,0,0,.407-.07,1.306,1.306,0,0,0,.744-1.643l-1.025-3.075-1.671-5.041a5.489,5.489,0,0,0-.52-1.123c-.07-.126-.154-.253-.239-.379a4.9,4.9,0,0,0-3.089-1.98,5.461,5.461,0,0,0-1.039-.112h-1.812a5.013,5.013,0,0,0-4.887,3.581l-1.671,5.041-1.011,3.075A1.306,1.306,0,0,0,915.965,163.665Z" transform="translate(-332.209 -26.442)"/>
    <path id="Path_36" data-name="Path 36" class="cls-1" d="M933.83,149.78a3.061,3.061,0,1,0-2.12-2.907,3.061,3.061,0,0,0,2.12,2.907Z" transform="translate(-325.486 -29.072)"/>
    <path id="Path_37" data-name="Path 37" class="cls-1" d="M925.4,149.755a4.914,4.914,0,0,1-.772,2.64,6.937,6.937,0,0,1,3.426,4.1l.7,2.134.155-2.808a6.417,6.417,0,0,1,4.985-6.094,4.929,4.929,0,0,1,1.4-6.263,6.137,6.137,0,0,0-3.539-.983h-3.595c-2.373,0-4.4.9-5.111,3.075a4.915,4.915,0,0,1,2.345,4.2Z" transform="translate(-328.987 -29.608)"/>
    <path id="Path_38" data-name="Path 38" class="cls-1" d="M922.083,151.566a3.019,3.019,0,1,0-2.149-.884A3.033,3.033,0,0,0,922.083,151.566Z" transform="translate(-330.604 -28.386)"/>
  </g>
</svg>
