<svg xmlns="http://www.w3.org/2000/svg" xmlns:xlink="http://www.w3.org/1999/xlink" viewBox="0 0 84.254 84.254">
  <defs>
    <style>
      .cls-1 {
        fill: #fff;
      }

      .cls-2 {
        fill: url(#linear-gradient);
      }
    </style>
    <linearGradient id="linear-gradient" y1="0.5" x2="1" y2="0.5" gradientUnits="objectBoundingBox">
      <stop offset="0" stop-color="#e4a130" stop-opacity="0.502"/>
      <stop offset="1" stop-color="#e4a130"/>
    </linearGradient>
  </defs>
  <g id="Solution" transform="translate(-897.505 -739.247)">
    <circle id="Ellipse_39" data-name="Ellipse 39" class="cls-1" cx="42.127" cy="42.127" r="42.127" transform="translate(897.505 739.247)"/>
    <path id="Path_47" data-name="Path 47" class="cls-2" d="M1205.033,626.587a1.643,1.643,0,0,0-1.643-1.643h-13.1a1.643,1.643,0,0,0,0,3.272h11.473v16.331h-4.915a1.643,1.643,0,0,0-1.643,1.643v2.6l-3.763-3.763a1.643,1.643,0,0,0-1.152-.478h-11.43V636.36a1.643,1.643,0,1,0-3.272,0v9.83a1.643,1.643,0,0,0,1.643,1.643h12.427l6.066,6.066a1.643,1.643,0,0,0,2.808-1.152v-4.915h4.915a1.643,1.643,0,0,0,1.643-1.643V626.531Zm-35.359,4.915h14.042a1.643,1.643,0,0,0,1.643-1.643V613.485a1.643,1.643,0,0,0-1.643-1.643h-26.2a1.643,1.643,0,0,0-1.643,1.643v16.387a1.643,1.643,0,0,0,1.643,1.643h3.272v4.915a1.643,1.643,0,0,0,2.808,1.151l6.066-6.066Zm50.1-1.643a39.319,39.319,0,1,1-39.319-39.319A39.319,39.319,0,0,1,1219.777,629.859Zm-60.579-14.8h22.931v13.1h-13.1a1.643,1.643,0,0,0-1.151.477l-3.763,3.763v-2.6a1.643,1.643,0,0,0-1.643-1.643H1159.2Z" transform="translate(-240.826 151.516)"/>
  </g>
</svg>
