<svg xmlns="http://www.w3.org/2000/svg" xmlns:xlink="http://www.w3.org/1999/xlink" viewBox="0 0 84.254 84.254">
  <defs>
    <style>
      .cls-1 {
        fill: #fff;
      }

      .cls-2 {
        fill: url(#linear-gradient);
      }
    </style>
    <linearGradient id="linear-gradient" y1="0.5" x2="1" y2="0.5" gradientUnits="objectBoundingBox">
      <stop offset="0" stop-color="#e4a130" stop-opacity="0.502"/>
      <stop offset="1" stop-color="#e4a130"/>
    </linearGradient>
  </defs>
  <g id="THO" transform="translate(-567.172 -739.247)">
    <circle id="Ellipse_37" data-name="Ellipse 37" class="cls-1" cx="42.127" cy="42.127" r="42.127" transform="translate(567.172 739.247)"/>
    <path id="Path_46" data-name="Path 46" class="cls-2" d="M950.134,641.331h11.459l1.4-14.745H950.134Zm10.153-18.016,2.542-11.473H951.959l1.278,11.473Zm6.221,1.8a1.643,1.643,0,0,0-1.629-1.8h-1.264l2.808-12.75a1.643,1.643,0,0,0-1.6-1.994H950.134A1.643,1.643,0,0,0,948.5,610.4l1.4,12.919h-1.4a1.643,1.643,0,0,0-1.643,1.643v3.272H943.59v-3.342a1.643,1.643,0,0,0-1.643-1.643h-1.4l1.4-12.919a1.643,1.643,0,0,0-1.629-1.825H925.559a1.643,1.643,0,0,0-1.6,1.994l2.808,12.75h-1.236a1.643,1.643,0,0,0-1.629,1.8l1.8,18.1a1.643,1.643,0,0,0,1.629,1.474h1.4v4.915a1.643,1.643,0,0,0,1.643,1.643h9.83a1.643,1.643,0,0,0,1.643-1.643v-4.985c1.643,0,1.643-.73,1.643-1.643v-1.643h3.272V642.9c0,.9,0,1.643,1.643,1.643v4.915a1.643,1.643,0,0,0,1.643,1.643h9.83a1.643,1.643,0,0,0,1.643-1.643v-4.915h1.4a1.643,1.643,0,0,0,1.629-1.474l1.8-18.016Zm18.03,4.746a39.319,39.319,0,1,1-39.319-39.319A39.319,39.319,0,0,1,984.537,629.859Zm-32.761,18.016h6.558v-3.328h-6.558v3.272Zm-19.659,0h6.558v-3.328h-6.558v3.272Zm-3.272-6.558H940.3V626.573H927.371l1.4,14.745Zm14.73-3.272h3.272v-6.558h-3.272ZM930.151,623.3l-2.542-11.473h10.869L937.2,623.3Z" transform="translate(-335.919 151.516)"/>
  </g>
</svg>
